<svg xmlns="http://www.w3.org/2000/svg" viewBox="0 0 1440 320"><path fill="#273036" fill-opacity="1" d="M0,224L21.8,234.7C43.6,245,87,267,131,266.7C174.5,267,218,245,262,229.3C305.5,213,349,203,393,197.3C436.4,192,480,192,524,170.7C567.3,149,611,107,655,90.7C698.2,75,742,85,785,128C829.1,171,873,245,916,234.7C960,224,1004,128,1047,101.3C1090.9,75,1135,117,1178,122.7C1221.8,128,1265,96,1309,69.3C1352.7,43,1396,21,1418,10.7L1440,0L1440,0L1418.2,0C1396.4,0,1353,0,1309,0C1265.5,0,1222,0,1178,0C1134.5,0,1091,0,1047,0C1003.6,0,960,0,916,0C872.7,0,829,0,785,0C741.8,0,698,0,655,0C610.9,0,567,0,524,0C480,0,436,0,393,0C349.1,0,305,0,262,0C218.2,0,175,0,131,0C87.3,0,44,0,22,0L0,0Z"></path></svg>